<?xml version="1.0" encoding="UTF-8"?>
<svg width="24px" height="24px" viewBox="0 0 24 24" version="1.1" xmlns="http://www.w3.org/2000/svg">
    <title>Tank Icon</title>
    <g id="Tank" stroke="none" stroke-width="1" fill="none" fill-rule="evenodd">
        <path d="M12,2 C6.48,2 2,6.48 2,12 C2,17.52 6.48,22 12,22 C17.52,22 22,17.52 22,12 C22,6.48 17.52,2 12,2 Z" id="Circle" fill="#2B2B2B"></path>
        <path d="M12,4 C7.582,4 4,7.582 4,12 C4,16.418 7.582,20 12,20 C16.418,20 20,16.418 20,12 C20,7.582 16.418,4 12,4 Z M12,6 C15.309,6 18,8.691 18,12 C18,15.309 15.309,18 12,18 C8.691,18 6,15.309 6,12 C6,8.691 8.691,6 12,6 Z" id="Shield-Outline" fill="#495057"></path>
        <path d="M12,6 C8.691,6 6,8.691 6,12 C6,15.309 8.691,18 12,18 C15.309,18 18,15.309 18,12 C18,8.691 15.309,6 12,6 Z M12,8 C14.206,8 16,9.794 16,12 C16,14.206 14.206,16 12,16 C9.794,16 8,14.206 8,12 C8,9.794 9.794,8 12,8 Z" id="Shield-Inner" fill="#929292"></path>
        <path d="M12,8 C9.794,8 8,9.794 8,12 C8,14.206 9.794,16 12,16 C14.206,16 16,14.206 16,12 C16,9.794 14.206,8 12,8 Z M12,10 C13.103,10 14,10.897 14,12 C14,13.103 13.103,14 12,14 C10.897,14 10,13.103 10,12 C10,10.897 10.897,10 12,10 Z" id="Shield-Core" fill="#D9D9D9"></path>
    </g>
</svg>