<?xml version="1.0" encoding="UTF-8"?>
<svg width="24px" height="24px" viewBox="0 0 24 24" version="1.1" xmlns="http://www.w3.org/2000/svg">
    <title>Healer Icon</title>
    <g id="Healer" stroke="none" stroke-width="1" fill="none" fill-rule="evenodd">
        <path d="M12,2 C6.48,2 2,6.48 2,12 C2,17.52 6.48,22 12,22 C17.52,22 22,17.52 22,12 C22,6.48 17.52,2 12,2 Z" id="Circle" fill="#2B2B2B"></path>
        <path d="M12,5 C8.13,5 5,8.13 5,12 C5,15.87 8.13,19 12,19 C15.87,19 19,15.87 19,12 C19,8.13 15.87,5 12,5 Z M10,9 L14,9 L14,11 L16,11 L16,15 L14,15 L14,17 L10,17 L10,15 L8,15 L8,11 L10,11 L10,9 Z" id="Cross-Shape" fill="#2B823B"></path>
        <path d="M10,9 L14,9 L14,11 L16,11 L16,15 L14,15 L14,17 L10,17 L10,15 L8,15 L8,11 L10,11 L10,9 Z M11,10 L11,12 L9,12 L9,14 L11,14 L11,16 L13,16 L13,14 L15,14 L15,12 L13,12 L13,10 L11,10 Z" id="Cross-Highlight" fill="#4CAF50"></path>
    </g>
</svg>